<svg width="80" height="80" viewBox="0 0 80 80" fill="none" xmlns="http://www.w3.org/2000/svg">
  <path d="M13 16L13 64" stroke="#C2CCDE" stroke-width="6" stroke-linecap="round" stroke-linejoin="round" />
  <path d="M13 22H19" stroke="#C2CCDE" stroke-width="6" stroke-linecap="round" stroke-linejoin="round" />
  <path d="M13 42H19" stroke="#C2CCDE" stroke-width="6" stroke-linecap="round" stroke-linejoin="round" />
  <path fill-rule="evenodd" clip-rule="evenodd" d="M23.0305 16.5038L19 16L19 48L23.0305 47.4962C23.0104 47.3336 23 47.168 23 47L23 17C23 16.832 23.0104 16.6664 23.0305 16.5038ZM31 46.5L39.0305 45.4962C39.0104 45.3336 39 45.168 39 45V19C39 18.832 39.0104 18.6664 39.0305 18.5038L31 17.5L31 46.5ZM47 19.5V44.5L55.0305 43.4962C55.0104 43.3336 55 43.168 55 43L55 21C55 20.832 55.0104 20.6664 55.0305 20.5038L47 19.5ZM63 21.5L63 42.5L67 42V22L63 21.5Z" fill="#C2CCDE" />
  <path d="M19 16L19.2481 14.0154C18.6788 13.9443 18.1065 14.121 17.6764 14.5006C17.2463 14.8803 17 15.4263 17 16H19ZM23.0305 16.5038L25.0153 16.7494C25.1508 15.6541 24.3736 14.6561 23.2785 14.5193L23.0305 16.5038ZM19 48H17C17 48.5737 17.2463 49.1197 17.6764 49.4994C18.1065 49.879 18.6788 50.0557 19.2481 49.9846L19 48ZM23.0305 47.4962L23.2785 49.4807C24.3736 49.3439 25.1508 48.3459 25.0153 47.2506L23.0305 47.4962ZM39.0305 45.4962L39.2785 47.4807C40.3736 47.3439 41.1508 46.3458 41.0153 45.2506L39.0305 45.4962ZM31 46.5H29C29 47.0737 29.2463 47.6197 29.6764 47.9994C30.1065 48.379 30.6788 48.5557 31.2481 48.4846L31 46.5ZM39.0305 18.5038L41.0153 18.7494C41.1508 17.6542 40.3736 16.6561 39.2785 16.5193L39.0305 18.5038ZM31 17.5L31.2481 15.5154C30.6788 15.4443 30.1065 15.621 29.6764 16.0006C29.2463 16.3803 29 16.9263 29 17.5H31ZM47 19.5L47.2481 17.5154C46.6788 17.4443 46.1065 17.621 45.6764 18.0006C45.2463 18.3803 45 18.9263 45 19.5H47ZM47 44.5H45C45 45.0737 45.2463 45.6197 45.6764 45.9994C46.1065 46.379 46.6788 46.5557 47.2481 46.4846L47 44.5ZM55.0305 43.4962L55.2785 45.4807C56.3736 45.3439 57.1509 44.3458 57.0153 43.2506L55.0305 43.4962ZM55.0305 20.5038L57.0153 20.7494C57.1509 19.6542 56.3736 18.6561 55.2785 18.5193L55.0305 20.5038ZM63 21.5L63.2481 19.5154C62.6788 19.4443 62.1065 19.621 61.6764 20.0006C61.2463 20.3803 61 20.9263 61 21.5H63ZM63 42.5H61C61 43.0737 61.2463 43.6197 61.6764 43.9994C62.1065 44.379 62.6788 44.5557 63.2481 44.4846L63 42.5ZM67 42L67.2481 43.9846C68.2489 43.8594 69 43.0086 69 42H67ZM67 22H69C69 20.9914 68.2489 20.1406 67.2481 20.0154L67 22ZM18.7519 17.9846L22.7824 18.4884L23.2785 14.5193L19.2481 14.0154L18.7519 17.9846ZM21 48L21 16H17L17 48H21ZM22.7824 45.5116L18.7519 46.0154L19.2481 49.9846L23.2785 49.4807L22.7824 45.5116ZM25.0153 47.2506C25.0053 47.1693 25 47.0857 25 47H21C21 47.2503 21.0154 47.4979 21.0456 47.7418L25.0153 47.2506ZM25 47L25 17H21L21 47H25ZM25 17C25 16.9143 25.0053 16.8307 25.0153 16.7494L21.0456 16.2582C21.0154 16.5021 21 16.7497 21 17H25ZM38.7824 43.5116L30.7519 44.5154L31.2481 48.4846L39.2785 47.4807L38.7824 43.5116ZM41.0153 45.2506C41.0053 45.1693 41 45.0857 41 45H37C37 45.2503 37.0154 45.4979 37.0456 45.7418L41.0153 45.2506ZM41 45V19H37V45H41ZM41 19C41 18.9143 41.0053 18.8307 41.0153 18.7494L37.0456 18.2582C37.0154 18.5021 37 18.7497 37 19H41ZM30.7519 19.4846L38.7824 20.4884L39.2785 16.5193L31.2481 15.5154L30.7519 19.4846ZM29 17.5L29 46.5H33L33 17.5L29 17.5ZM45 19.5V44.5H49V19.5H45ZM54.7824 41.5116L46.7519 42.5154L47.2481 46.4846L55.2785 45.4807L54.7824 41.5116ZM57.0153 43.2506C57.0053 43.1693 57 43.0857 57 43H53C53 43.2503 53.0154 43.4979 53.0456 43.7418L57.0153 43.2506ZM57 43L57 21H53L53 43H57ZM57 21C57 20.9143 57.0053 20.8307 57.0153 20.7494L53.0456 20.2582C53.0154 20.5021 53 20.7497 53 21H57ZM46.7519 21.4846L54.7824 22.4884L55.2785 18.5193L47.2481 17.5154L46.7519 21.4846ZM61 21.5L61 42.5H65V21.5H61ZM66.7519 40.0154L62.7519 40.5154L63.2481 44.4846L67.2481 43.9846L66.7519 40.0154ZM65 22V42H69V22H65ZM62.7519 23.4846L66.7519 23.9846L67.2481 20.0154L63.2481 19.5154L62.7519 23.4846Z" fill="#C2CCDE" />
</svg>