<svg width="80" height="80" viewBox="0 0 80 80" fill="none" xmlns="http://www.w3.org/2000/svg">
  <path fill-rule="evenodd" clip-rule="evenodd" d="M40 11.7676C51.0457 11.7676 60 20.7219 60 31.7676V32.9722C60 37.3918 58.6191 41.7009 56.0503 45.2972L40.0395 67.7123C40.0201 67.7394 39.9799 67.7394 39.9605 67.7123L23.9497 45.2972C21.3809 41.7009 20 37.3918 20 32.9722V31.7676C20 20.7219 28.9543 11.7676 40 11.7676ZM48.7838 29.882C48.1737 27.2088 46.3795 24.959 43.9092 23.7694C41.4388 22.5797 38.5612 22.5797 36.0908 23.7694C33.6205 24.959 31.8263 27.2088 31.2162 29.882C30.6061 32.5551 31.2464 35.3606 32.9559 37.5043C34.6655 39.6479 37.2581 40.8965 40 40.8965C42.7419 40.8965 45.3345 39.6479 47.0441 37.5043C48.7536 35.3606 49.3939 32.5551 48.7838 29.882Z" fill="#C2CCDE" />
  <path d="M56.0503 45.2972L54.8297 44.4253L56.0503 45.2972ZM40.0395 67.7123L38.8189 66.8404L38.8189 66.8405L40.0395 67.7123ZM39.9605 67.7123L41.1811 66.8405L41.1811 66.8404L39.9605 67.7123ZM23.9497 45.2972L22.7291 46.169L22.7291 46.169L23.9497 45.2972ZM43.9092 23.7694L44.56 22.4179L44.56 22.4179L43.9092 23.7694ZM48.7838 29.882L50.2462 29.5482L50.2462 29.5482L48.7838 29.882ZM36.0908 23.7694L36.7417 25.1208L36.7417 25.1208L36.0908 23.7694ZM31.2162 29.882L29.7538 29.5482L29.7538 29.5482L31.2162 29.882ZM32.9559 37.5043L34.1287 36.569L34.1287 36.569L32.9559 37.5043ZM47.0441 37.5043L45.8713 36.569L45.8713 36.569L47.0441 37.5043ZM61.5 31.7676C61.5 19.8935 51.8741 10.2676 40 10.2676V13.2676C50.2173 13.2676 58.5 21.5503 58.5 31.7676H61.5ZM61.5 32.9722V31.7676H58.5V32.9722H61.5ZM57.2709 46.169C60.0214 42.3183 61.5 37.7044 61.5 32.9722H58.5C58.5 37.0791 57.2168 41.0834 54.8297 44.4253L57.2709 46.169ZM41.2601 68.5841L57.2709 46.169L54.8297 44.4253L38.8189 66.8404L41.2601 68.5841ZM38.7399 68.5841C39.3574 69.4488 40.6426 69.4488 41.2601 68.5841L38.8189 66.8405C39.3977 66.03 40.6023 66.03 41.1811 66.8405L38.7399 68.5841ZM22.7291 46.169L38.7399 68.5841L41.1811 66.8404L25.1703 44.4253L22.7291 46.169ZM18.5 32.9722C18.5 37.7044 19.9786 42.3183 22.7291 46.169L25.1703 44.4253C22.7832 41.0834 21.5 37.0791 21.5 32.9722H18.5ZM18.5 31.7676V32.9722H21.5V31.7676H18.5ZM40 10.2676C28.1259 10.2676 18.5 19.8935 18.5 31.7676H21.5C21.5 21.5503 29.7827 13.2676 40 13.2676V10.2676ZM43.2583 25.1208C45.3174 26.1124 46.8129 27.9877 47.3214 30.2157L50.2462 29.5482C49.5345 26.43 47.4416 23.8056 44.56 22.4179L43.2583 25.1208ZM36.7417 25.1208C38.8007 24.1292 41.1993 24.1292 43.2583 25.1208L44.56 22.4179C41.6784 21.0302 38.3216 21.0302 35.44 22.4179L36.7417 25.1208ZM32.6786 30.2157C33.1871 27.9877 34.6826 26.1124 36.7417 25.1208L35.44 22.4179C32.5584 23.8056 30.4655 26.43 29.7538 29.5482L32.6786 30.2157ZM34.1287 36.569C32.7038 34.7822 32.17 32.4438 32.6786 30.2157L29.7538 29.5482C29.0421 32.6663 29.7891 35.9389 31.7832 38.4395L34.1287 36.569ZM40 39.3965C37.7146 39.3965 35.5536 38.3558 34.1287 36.569L31.7832 38.4395C33.7773 40.9401 36.8016 42.3965 40 42.3965V39.3965ZM45.8713 36.569C44.4464 38.3558 42.2854 39.3965 40 39.3965V42.3965C43.1984 42.3965 46.2227 40.9401 48.2168 38.4395L45.8713 36.569ZM47.3214 30.2157C47.8299 32.4438 47.2962 34.7822 45.8713 36.569L48.2168 38.4395C50.2109 35.9389 50.9579 32.6663 50.2462 29.5482L47.3214 30.2157Z" fill="#C2CCDE" />
</svg>